<svg xmlns="http://www.w3.org/2000/svg" viewBox="0 0 1060 448" width="1060" height="448">
  <title>Odo</title>
  
  <g transform="translate(64 64) scale(0.31)">
  
  <defs><filter id="grain" x="0" y="0" width="100%" height="100%" color-interpolation-filters="sRGB">
    <feTurbulence type="fractalNoise" baseFrequency="0.62" numOctaves="2" stitchTiles="stitch" result="bruit"/>
    <feColorMatrix in="bruit" type="saturate" values="0"/>
    <feComponentTransfer><feFuncA type="linear" slope="0.035"/></feComponentTransfer>
  </filter><filter id="halo" x="-30%" y="-30%" width="160%" height="160%" color-interpolation-filters="sRGB">
    <feGaussianBlur stdDeviation="30"/>
  </filter><clipPath id="rond"><circle cx="512" cy="512" r="512"/></clipPath></defs>
  <g clip-path="url(#rond)">
    <rect width="1024" height="1024" fill="#f7f5fb"/>
    <defs>
    <radialGradient id="ra" gradientUnits="userSpaceOnUse" cx="245.76" cy="204.8" r="634.88">
      <stop offset="0" stop-color="#ff3d81" stop-opacity="0.14"/><stop offset="1" stop-color="#ff3d81" stop-opacity="0"/>
    </radialGradient>
    <radialGradient id="rb" gradientUnits="userSpaceOnUse" cx="819.2" cy="880.64" r="634.88">
      <stop offset="0" stop-color="#7a5cff" stop-opacity="0.161"/><stop offset="1" stop-color="#7a5cff" stop-opacity="0"/>
    </radialGradient>
    <radialGradient id="rc" gradientUnits="userSpaceOnUse" cx="798.72" cy="122.88" r="380.93">
      <stop offset="0" stop-color="#ff8a3d" stop-opacity="0.07"/><stop offset="1" stop-color="#ff8a3d" stop-opacity="0"/>
    </radialGradient>
  </defs>
  <rect width="1024" height="1024" fill="url(#ra)"/>
  <rect width="1024" height="1024" fill="url(#rb)"/>
  <rect width="1024" height="1024" fill="url(#rc)"/>
  </g>
  <g filter="url(#halo)" opacity="0.3"><g fill="none" stroke-width="26" stroke-linecap="butt"><path d="M298 882.66A428 428 0 0 1 280.78 872.17" stroke="#ff3d81"/><path d="M285.19 874.96A428 428 0 0 1 268.35 863.88" stroke="#ff3f7f"/><path d="M272.67 866.83A428 428 0 0 1 256.22 855.16" stroke="#ff407e"/><path d="M260.43 858.26A428 428 0 0 1 244.4 846.02" stroke="#ff427c"/><path d="M248.5 849.27A428 428 0 0 1 232.9 836.48" stroke="#ff447b"/><path d="M236.89 839.87A428 428 0 0 1 221.75 826.54" stroke="#ff4679"/><path d="M225.61 830.07A428 428 0 0 1 210.95 816.22" stroke="#ff4778"/><path d="M214.69 819.88A428 428 0 0 1 200.51 805.53" stroke="#ff4976"/><path d="M204.12 809.31A428 428 0 0 1 190.46 794.48" stroke="#ff4b75"/><path d="M193.93 798.39A428 428 0 0 1 180.8 783.09" stroke="#ff4c73"/><path d="M184.13 787.11A428 428 0 0 1 171.54 771.36" stroke="#ff4e72"/><path d="M174.73 775.5A428 428 0 0 1 162.69 759.32" stroke="#ff5070"/><path d="M165.74 763.57A428 428 0 0 1 154.27 746.98" stroke="#ff526f"/><path d="M157.17 751.33A428 428 0 0 1 146.29 734.35" stroke="#ff536d"/><path d="M149.04 738.81A428 428 0 0 1 138.75 721.46" stroke="#ff556c"/><path d="M141.34 726A428 428 0 0 1 131.67 708.3" stroke="#ff576a"/><path d="M134.1 712.93A428 428 0 0 1 125.05 694.91" stroke="#ff5869"/><path d="M127.32 699.62A428 428 0 0 1 118.9 681.29" stroke="#ff5a67"/><path d="M121 686.08A428 428 0 0 1 113.24 667.47" stroke="#ff5c66"/><path d="M115.17 672.33A428 428 0 0 1 108.05 653.46" stroke="#ff5e64"/><path d="M109.81 658.38A428 428 0 0 1 103.36 639.28" stroke="#ff5f63"/><path d="M104.95 644.26A428 428 0 0 1 99.17 624.94" stroke="#ff6161"/><path d="M100.58 629.97A428 428 0 0 1 95.48 610.46" stroke="#ff6360"/><path d="M96.71 615.54A428 428 0 0 1 92.3 595.86" stroke="#ff645e"/><path d="M93.35 600.99A428 428 0 0 1 89.63 581.17" stroke="#ff665d"/><path d="M90.5 586.32A428 428 0 0 1 87.47 566.38" stroke="#ff685b"/><path d="M88.17 571.57A428 428 0 0 1 85.83 551.53" stroke="#ff695a"/><path d="M86.34 556.74A428 428 0 0 1 84.71 536.64" stroke="#ff6b58"/><path d="M85.04 541.86A428 428 0 0 1 84.11 521.71" stroke="#ff6d57"/><path d="M84.26 526.94A428 428 0 0 1 84.03 506.77" stroke="#ff6f55"/><path d="M84 512A428 428 0 0 1 84.48 491.84" stroke="#ff7054"/><path d="M84.26 497.06A428 428 0 0 1 85.44 476.93" stroke="#ff7252"/><path d="M85.04 482.14A428 428 0 0 1 86.92 462.06" stroke="#ff7451"/><path d="M86.34 467.26A428 428 0 0 1 88.92 447.26" stroke="#ff754f"/><path d="M88.17 452.43A428 428 0 0 1 91.44 432.53" stroke="#ff774e"/><path d="M90.5 437.68A428 428 0 0 1 94.47 417.91" stroke="#ff794c"/><path d="M93.35 423.01A428 428 0 0 1 98.01 403.39" stroke="#ff7b4b"/><path d="M96.71 408.46A428 428 0 0 1 102.05 389.01" stroke="#ff7c49"/><path d="M100.58 394.03A428 428 0 0 1 106.59 374.78" stroke="#ff7e48"/><path d="M104.95 379.74A428 428 0 0 1 111.63 360.71" stroke="#ff8046"/><path d="M109.81 365.62A428 428 0 0 1 117.15 346.83" stroke="#ff8145"/><path d="M115.17 351.67A428 428 0 0 1 123.16 333.15" stroke="#ff8343"/><path d="M121 337.92A428 428 0 0 1 129.64 319.69" stroke="#ff8542"/><path d="M127.32 324.38A428 428 0 0 1 136.58 306.46" stroke="#ff8740"/><path d="M134.1 311.07A428 428 0 0 1 143.98 293.49" stroke="#ff883f"/><path d="M141.34 298A428 428 0 0 1 151.83 280.78" stroke="#ff8a3d"/><path d="M149.04 285.19A428 428 0 0 1 160.12 268.35" stroke="#ff8c3d"/><path d="M157.17 272.67A428 428 0 0 1 168.84 256.22" stroke="#ff8d3e"/><path d="M165.74 260.43A428 428 0 0 1 177.98 244.4" stroke="#ff8f3e"/><path d="M174.73 248.5A428 428 0 0 1 187.52 232.9" stroke="#ff903e"/><path d="M184.13 236.89A428 428 0 0 1 197.46 221.75" stroke="#ff923f"/><path d="M193.93 225.61A428 428 0 0 1 207.78 210.95" stroke="#ff943f"/><path d="M204.12 214.69A428 428 0 0 1 218.47 200.51" stroke="#ff953f"/><path d="M214.69 204.12A428 428 0 0 1 229.52 190.46" stroke="#ff9740"/><path d="M225.61 193.93A428 428 0 0 1 240.91 180.8" stroke="#ff9940"/><path d="M236.89 184.13A428 428 0 0 1 252.64 171.54" stroke="#ff9a41"/><path d="M248.5 174.73A428 428 0 0 1 264.68 162.69" stroke="#ff9c41"/><path d="M260.43 165.74A428 428 0 0 1 277.02 154.27" stroke="#ff9d41"/><path d="M272.67 157.17A428 428 0 0 1 289.65 146.29" stroke="#ff9f42"/><path d="M285.19 149.04A428 428 0 0 1 302.54 138.75" stroke="#ffa142"/><path d="M298 141.34A428 428 0 0 1 315.7 131.67" stroke="#ffa242"/><path d="M311.07 134.1A428 428 0 0 1 329.09 125.05" stroke="#ffa443"/><path d="M324.38 127.32A428 428 0 0 1 342.71 118.9" stroke="#ffa643"/><path d="M337.92 121A428 428 0 0 1 356.53 113.24" stroke="#ffa743"/><path d="M351.67 115.17A428 428 0 0 1 370.54 108.05" stroke="#ffa944"/><path d="M365.62 109.81A428 428 0 0 1 384.72 103.36" stroke="#ffaa44"/><path d="M379.74 104.95A428 428 0 0 1 399.06 99.17" stroke="#ffac44"/><path d="M394.03 100.58A428 428 0 0 1 413.54 95.48" stroke="#ffae45"/><path d="M408.46 96.71A428 428 0 0 1 428.14 92.3" stroke="#ffaf45"/><path d="M423.01 93.35A428 428 0 0 1 442.83 89.63" stroke="#ffb146"/><path d="M437.68 90.5A428 428 0 0 1 457.62 87.47" stroke="#ffb346"/><path d="M452.43 88.17A428 428 0 0 1 472.47 85.83" stroke="#ffb446"/><path d="M467.26 86.34A428 428 0 0 1 487.36 84.71" stroke="#ffb647"/><path d="M482.14 85.04A428 428 0 0 1 502.29 84.11" stroke="#ffb747"/><path d="M497.06 84.26A428 428 0 0 1 517.23 84.03" stroke="#ffb947"/><path d="M512 84A428 428 0 0 1 532.16 84.48" stroke="#ffbb48"/><path d="M526.94 84.26A428 428 0 0 1 547.07 85.44" stroke="#ffbc48"/><path d="M541.86 85.04A428 428 0 0 1 561.94 86.92" stroke="#ffbe48"/><path d="M556.74 86.34A428 428 0 0 1 576.74 88.92" stroke="#ffc049"/><path d="M571.57 88.17A428 428 0 0 1 591.47 91.44" stroke="#ffc149"/><path d="M586.32 90.5A428 428 0 0 1 606.09 94.47" stroke="#ffc349"/><path d="M600.99 93.35A428 428 0 0 1 620.61 98.01" stroke="#ffc44a"/><path d="M615.54 96.71A428 428 0 0 1 634.99 102.05" stroke="#ffc64a"/><path d="M629.97 100.58A428 428 0 0 1 649.22 106.59" stroke="#ffc84b"/><path d="M644.26 104.95A428 428 0 0 1 663.29 111.63" stroke="#ffc94b"/><path d="M658.38 109.81A428 428 0 0 1 677.17 117.15" stroke="#ffcb4b"/><path d="M672.33 115.17A428 428 0 0 1 690.85 123.16" stroke="#ffcd4c"/><path d="M686.08 121A428 428 0 0 1 704.31 129.64" stroke="#ffce4c"/><path d="M699.62 127.32A428 428 0 0 1 717.54 136.58" stroke="#ffd04c"/><path d="M712.93 134.1A428 428 0 0 1 730.51 143.98" stroke="#ffd14d"/><path d="M726 141.34A428 428 0 0 1 743.22 151.83" stroke="#ffd34d"/><path d="M738.81 149.04A428 428 0 0 1 755.65 160.12" stroke="#fcd051"/><path d="M751.33 157.17A428 428 0 0 1 767.78 168.84" stroke="#f9ce55"/><path d="M763.57 165.74A428 428 0 0 1 779.6 177.98" stroke="#f6cb59"/><path d="M775.5 174.73A428 428 0 0 1 791.1 187.52" stroke="#f3c85d"/><path d="M787.11 184.13A428 428 0 0 1 802.25 197.46" stroke="#f0c661"/><path d="M798.39 193.93A428 428 0 0 1 813.05 207.78" stroke="#edc365"/><path d="M809.31 204.12A428 428 0 0 1 823.49 218.47" stroke="#eac069"/><path d="M819.88 214.69A428 428 0 0 1 833.54 229.52" stroke="#e7be6d"/><path d="M830.07 225.61A428 428 0 0 1 843.2 240.91" stroke="#e4bb71"/><path d="M839.87 236.89A428 428 0 0 1 852.46 252.64" stroke="#e1b975"/><path d="M849.27 248.5A428 428 0 0 1 861.31 264.68" stroke="#deb679"/><path d="M858.26 260.43A428 428 0 0 1 869.73 277.02" stroke="#dcb37c"/><path d="M866.83 272.67A428 428 0 0 1 877.71 289.65" stroke="#d9b180"/><path d="M874.96 285.19A428 428 0 0 1 885.25 302.54" stroke="#d6ae84"/><path d="M882.66 298A428 428 0 0 1 892.33 315.7" stroke="#d3ab88"/><path d="M889.9 311.07A428 428 0 0 1 898.95 329.09" stroke="#d0a98c"/><path d="M896.68 324.38A428 428 0 0 1 905.1 342.71" stroke="#cda690"/><path d="M903 337.92A428 428 0 0 1 910.76 356.53" stroke="#caa394"/><path d="M908.83 351.67A428 428 0 0 1 915.95 370.54" stroke="#c7a198"/><path d="M914.19 365.62A428 428 0 0 1 920.64 384.72" stroke="#c49e9c"/><path d="M919.05 379.74A428 428 0 0 1 924.83 399.06" stroke="#c19ba0"/><path d="M923.42 394.03A428 428 0 0 1 928.52 413.54" stroke="#be99a4"/><path d="M927.29 408.46A428 428 0 0 1 931.7 428.14" stroke="#bb96a8"/><path d="M930.65 423.01A428 428 0 0 1 934.37 442.83" stroke="#b894ac"/><path d="M933.5 437.68A428 428 0 0 1 936.53 457.62" stroke="#b591b0"/><path d="M935.83 452.43A428 428 0 0 1 938.17 472.47" stroke="#b28eb4"/><path d="M937.66 467.26A428 428 0 0 1 939.29 487.36" stroke="#af8cb8"/><path d="M938.96 482.14A428 428 0 0 1 939.89 502.29" stroke="#ac89bc"/><path d="M939.74 497.06A428 428 0 0 1 939.97 517.23" stroke="#a986c0"/><path d="M940 512A428 428 0 0 1 939.52 532.16" stroke="#a684c4"/><path d="M939.74 526.94A428 428 0 0 1 938.56 547.07" stroke="#a381c8"/><path d="M938.96 541.86A428 428 0 0 1 937.08 561.94" stroke="#a07ecc"/><path d="M937.66 556.74A428 428 0 0 1 935.08 576.74" stroke="#9d7cd0"/><path d="M935.83 571.57A428 428 0 0 1 932.56 591.47" stroke="#9b79d3"/><path d="M933.5 586.32A428 428 0 0 1 929.53 606.09" stroke="#9876d7"/><path d="M930.65 600.99A428 428 0 0 1 925.99 620.61" stroke="#9574db"/><path d="M927.29 615.54A428 428 0 0 1 921.95 634.99" stroke="#9271df"/><path d="M923.42 629.97A428 428 0 0 1 917.41 649.22" stroke="#8f6fe3"/><path d="M919.05 644.26A428 428 0 0 1 912.37 663.29" stroke="#8c6ce7"/><path d="M914.19 658.38A428 428 0 0 1 906.85 677.17" stroke="#8969eb"/><path d="M908.83 672.33A428 428 0 0 1 900.84 690.85" stroke="#8667ef"/><path d="M903 686.08A428 428 0 0 1 894.36 704.31" stroke="#8364f3"/><path d="M896.68 699.62A428 428 0 0 1 887.42 717.54" stroke="#8061f7"/><path d="M889.9 712.93A428 428 0 0 1 880.02 730.51" stroke="#7d5ffb"/><path d="M882.66 726A428 428 0 0 1 872.17 743.22" stroke="#7a5cff"/><path d="M874.96 738.81A428 428 0 0 1 863.88 755.65" stroke="#7d5bfc"/><path d="M866.83 751.33A428 428 0 0 1 855.16 767.78" stroke="#805bf9"/><path d="M858.26 763.57A428 428 0 0 1 846.02 779.6" stroke="#835af7"/><path d="M849.27 775.5A428 428 0 0 1 836.48 791.1" stroke="#8659f4"/><path d="M839.87 787.11A428 428 0 0 1 826.54 802.25" stroke="#8959f1"/><path d="M830.07 798.39A428 428 0 0 1 816.22 813.05" stroke="#8c58ee"/><path d="M819.88 809.31A428 428 0 0 1 805.53 823.49" stroke="#8f57eb"/><path d="M809.31 819.88A428 428 0 0 1 794.48 833.54" stroke="#9256e9"/><path d="M798.39 830.07A428 428 0 0 1 783.09 843.2" stroke="#9556e6"/><path d="M787.11 839.87A428 428 0 0 1 771.36 852.46" stroke="#9855e3"/><path d="M775.5 849.27A428 428 0 0 1 759.32 861.31" stroke="#9b54e0"/><path d="M763.57 858.26A428 428 0 0 1 746.98 869.73" stroke="#9d54dd"/><path d="M751.33 866.83A428 428 0 0 1 734.35 877.71" stroke="#a053db"/><path d="M738.81 874.96A428 428 0 0 1 721.46 885.25" stroke="#a352d8"/><path d="M726 882.66A428 428 0 0 1 708.3 892.33" stroke="#a652d5"/><path d="M712.93 889.9A428 428 0 0 1 694.91 898.95" stroke="#a951d2"/><path d="M699.62 896.68A428 428 0 0 1 681.29 905.1" stroke="#ac50cf"/><path d="M686.08 903A428 428 0 0 1 667.47 910.76" stroke="#af50cd"/><path d="M672.33 908.83A428 428 0 0 1 653.46 915.95" stroke="#b24fca"/><path d="M658.38 914.19A428 428 0 0 1 639.28 920.64" stroke="#b54ec7"/><path d="M644.26 919.05A428 428 0 0 1 624.94 924.83" stroke="#b84ec4"/><path d="M629.97 923.42A428 428 0 0 1 610.46 928.52" stroke="#bb4dc1"/><path d="M615.54 927.29A428 428 0 0 1 595.86 931.7" stroke="#be4cbf"/><path d="M600.99 930.65A428 428 0 0 1 581.17 934.37" stroke="#c14bbc"/><path d="M586.32 933.5A428 428 0 0 1 566.38 936.53" stroke="#c44bb9"/><path d="M571.57 935.83A428 428 0 0 1 551.53 938.17" stroke="#c74ab6"/><path d="M556.74 937.66A428 428 0 0 1 536.64 939.29" stroke="#ca49b3"/><path d="M541.86 938.96A428 428 0 0 1 521.71 939.89" stroke="#cd49b1"/><path d="M526.94 939.74A428 428 0 0 1 506.77 939.97" stroke="#d048ae"/><path d="M512 940A428 428 0 0 1 491.84 939.52" stroke="#d347ab"/><path d="M497.06 939.74A428 428 0 0 1 476.93 938.56" stroke="#d647a8"/><path d="M482.14 938.96A428 428 0 0 1 462.06 937.08" stroke="#d946a5"/><path d="M467.26 937.66A428 428 0 0 1 447.26 935.08" stroke="#dc45a3"/><path d="M452.43 935.83A428 428 0 0 1 432.53 932.56" stroke="#de45a0"/><path d="M437.68 933.5A428 428 0 0 1 417.91 929.53" stroke="#e1449d"/><path d="M423.01 930.65A428 428 0 0 1 403.39 925.99" stroke="#e4439a"/><path d="M408.46 927.29A428 428 0 0 1 389.01 921.95" stroke="#e74397"/><path d="M394.03 923.42A428 428 0 0 1 374.78 917.41" stroke="#ea4295"/><path d="M379.74 919.05A428 428 0 0 1 360.71 912.37" stroke="#ed4192"/><path d="M365.62 914.19A428 428 0 0 1 346.83 906.85" stroke="#f0408f"/><path d="M351.67 908.83A428 428 0 0 1 333.15 900.84" stroke="#f3408c"/><path d="M337.92 903A428 428 0 0 1 319.69 894.36" stroke="#f63f89"/><path d="M324.38 896.68A428 428 0 0 1 306.46 887.42" stroke="#f93e87"/><path d="M311.07 889.9A428 428 0 0 1 293.49 880.02" stroke="#fc3e84"/></g></g>
  <g fill="none" stroke-width="26" stroke-linecap="butt"><path d="M298 882.66A428 428 0 0 1 280.78 872.17" stroke="#ff3d81"/><path d="M285.19 874.96A428 428 0 0 1 268.35 863.88" stroke="#ff3f7f"/><path d="M272.67 866.83A428 428 0 0 1 256.22 855.16" stroke="#ff407e"/><path d="M260.43 858.26A428 428 0 0 1 244.4 846.02" stroke="#ff427c"/><path d="M248.5 849.27A428 428 0 0 1 232.9 836.48" stroke="#ff447b"/><path d="M236.89 839.87A428 428 0 0 1 221.75 826.54" stroke="#ff4679"/><path d="M225.61 830.07A428 428 0 0 1 210.95 816.22" stroke="#ff4778"/><path d="M214.69 819.88A428 428 0 0 1 200.51 805.53" stroke="#ff4976"/><path d="M204.12 809.31A428 428 0 0 1 190.46 794.48" stroke="#ff4b75"/><path d="M193.93 798.39A428 428 0 0 1 180.8 783.09" stroke="#ff4c73"/><path d="M184.13 787.11A428 428 0 0 1 171.54 771.36" stroke="#ff4e72"/><path d="M174.73 775.5A428 428 0 0 1 162.69 759.32" stroke="#ff5070"/><path d="M165.74 763.57A428 428 0 0 1 154.27 746.98" stroke="#ff526f"/><path d="M157.17 751.33A428 428 0 0 1 146.29 734.35" stroke="#ff536d"/><path d="M149.04 738.81A428 428 0 0 1 138.75 721.46" stroke="#ff556c"/><path d="M141.34 726A428 428 0 0 1 131.67 708.3" stroke="#ff576a"/><path d="M134.1 712.93A428 428 0 0 1 125.05 694.91" stroke="#ff5869"/><path d="M127.32 699.62A428 428 0 0 1 118.9 681.29" stroke="#ff5a67"/><path d="M121 686.08A428 428 0 0 1 113.24 667.47" stroke="#ff5c66"/><path d="M115.17 672.33A428 428 0 0 1 108.05 653.46" stroke="#ff5e64"/><path d="M109.81 658.38A428 428 0 0 1 103.36 639.28" stroke="#ff5f63"/><path d="M104.95 644.26A428 428 0 0 1 99.17 624.94" stroke="#ff6161"/><path d="M100.58 629.97A428 428 0 0 1 95.48 610.46" stroke="#ff6360"/><path d="M96.71 615.54A428 428 0 0 1 92.3 595.86" stroke="#ff645e"/><path d="M93.35 600.99A428 428 0 0 1 89.63 581.17" stroke="#ff665d"/><path d="M90.5 586.32A428 428 0 0 1 87.47 566.38" stroke="#ff685b"/><path d="M88.17 571.57A428 428 0 0 1 85.83 551.53" stroke="#ff695a"/><path d="M86.34 556.74A428 428 0 0 1 84.71 536.64" stroke="#ff6b58"/><path d="M85.04 541.86A428 428 0 0 1 84.11 521.71" stroke="#ff6d57"/><path d="M84.26 526.94A428 428 0 0 1 84.03 506.77" stroke="#ff6f55"/><path d="M84 512A428 428 0 0 1 84.48 491.84" stroke="#ff7054"/><path d="M84.26 497.06A428 428 0 0 1 85.44 476.93" stroke="#ff7252"/><path d="M85.04 482.14A428 428 0 0 1 86.92 462.06" stroke="#ff7451"/><path d="M86.34 467.26A428 428 0 0 1 88.92 447.26" stroke="#ff754f"/><path d="M88.17 452.43A428 428 0 0 1 91.44 432.53" stroke="#ff774e"/><path d="M90.5 437.68A428 428 0 0 1 94.47 417.91" stroke="#ff794c"/><path d="M93.35 423.01A428 428 0 0 1 98.01 403.39" stroke="#ff7b4b"/><path d="M96.71 408.46A428 428 0 0 1 102.05 389.01" stroke="#ff7c49"/><path d="M100.58 394.03A428 428 0 0 1 106.59 374.78" stroke="#ff7e48"/><path d="M104.95 379.74A428 428 0 0 1 111.63 360.71" stroke="#ff8046"/><path d="M109.81 365.62A428 428 0 0 1 117.15 346.83" stroke="#ff8145"/><path d="M115.17 351.67A428 428 0 0 1 123.16 333.15" stroke="#ff8343"/><path d="M121 337.92A428 428 0 0 1 129.64 319.69" stroke="#ff8542"/><path d="M127.32 324.38A428 428 0 0 1 136.58 306.46" stroke="#ff8740"/><path d="M134.1 311.07A428 428 0 0 1 143.98 293.49" stroke="#ff883f"/><path d="M141.34 298A428 428 0 0 1 151.83 280.78" stroke="#ff8a3d"/><path d="M149.04 285.19A428 428 0 0 1 160.12 268.35" stroke="#ff8c3d"/><path d="M157.17 272.67A428 428 0 0 1 168.84 256.22" stroke="#ff8d3e"/><path d="M165.74 260.43A428 428 0 0 1 177.98 244.4" stroke="#ff8f3e"/><path d="M174.73 248.5A428 428 0 0 1 187.52 232.9" stroke="#ff903e"/><path d="M184.13 236.89A428 428 0 0 1 197.46 221.75" stroke="#ff923f"/><path d="M193.93 225.61A428 428 0 0 1 207.78 210.95" stroke="#ff943f"/><path d="M204.12 214.69A428 428 0 0 1 218.47 200.51" stroke="#ff953f"/><path d="M214.69 204.12A428 428 0 0 1 229.52 190.46" stroke="#ff9740"/><path d="M225.61 193.93A428 428 0 0 1 240.91 180.8" stroke="#ff9940"/><path d="M236.89 184.13A428 428 0 0 1 252.64 171.54" stroke="#ff9a41"/><path d="M248.5 174.73A428 428 0 0 1 264.68 162.69" stroke="#ff9c41"/><path d="M260.43 165.74A428 428 0 0 1 277.02 154.27" stroke="#ff9d41"/><path d="M272.67 157.17A428 428 0 0 1 289.65 146.29" stroke="#ff9f42"/><path d="M285.19 149.04A428 428 0 0 1 302.54 138.75" stroke="#ffa142"/><path d="M298 141.34A428 428 0 0 1 315.7 131.67" stroke="#ffa242"/><path d="M311.07 134.1A428 428 0 0 1 329.09 125.05" stroke="#ffa443"/><path d="M324.38 127.32A428 428 0 0 1 342.71 118.9" stroke="#ffa643"/><path d="M337.92 121A428 428 0 0 1 356.53 113.24" stroke="#ffa743"/><path d="M351.67 115.17A428 428 0 0 1 370.54 108.05" stroke="#ffa944"/><path d="M365.62 109.81A428 428 0 0 1 384.72 103.36" stroke="#ffaa44"/><path d="M379.74 104.95A428 428 0 0 1 399.06 99.17" stroke="#ffac44"/><path d="M394.03 100.58A428 428 0 0 1 413.54 95.48" stroke="#ffae45"/><path d="M408.46 96.71A428 428 0 0 1 428.14 92.3" stroke="#ffaf45"/><path d="M423.01 93.35A428 428 0 0 1 442.83 89.63" stroke="#ffb146"/><path d="M437.68 90.5A428 428 0 0 1 457.62 87.47" stroke="#ffb346"/><path d="M452.43 88.17A428 428 0 0 1 472.47 85.83" stroke="#ffb446"/><path d="M467.26 86.34A428 428 0 0 1 487.36 84.71" stroke="#ffb647"/><path d="M482.14 85.04A428 428 0 0 1 502.29 84.11" stroke="#ffb747"/><path d="M497.06 84.26A428 428 0 0 1 517.23 84.03" stroke="#ffb947"/><path d="M512 84A428 428 0 0 1 532.16 84.48" stroke="#ffbb48"/><path d="M526.94 84.26A428 428 0 0 1 547.07 85.44" stroke="#ffbc48"/><path d="M541.86 85.04A428 428 0 0 1 561.94 86.92" stroke="#ffbe48"/><path d="M556.74 86.34A428 428 0 0 1 576.74 88.92" stroke="#ffc049"/><path d="M571.57 88.17A428 428 0 0 1 591.47 91.44" stroke="#ffc149"/><path d="M586.32 90.5A428 428 0 0 1 606.09 94.47" stroke="#ffc349"/><path d="M600.99 93.35A428 428 0 0 1 620.61 98.01" stroke="#ffc44a"/><path d="M615.54 96.71A428 428 0 0 1 634.99 102.05" stroke="#ffc64a"/><path d="M629.97 100.58A428 428 0 0 1 649.22 106.59" stroke="#ffc84b"/><path d="M644.26 104.95A428 428 0 0 1 663.29 111.63" stroke="#ffc94b"/><path d="M658.38 109.81A428 428 0 0 1 677.17 117.15" stroke="#ffcb4b"/><path d="M672.33 115.17A428 428 0 0 1 690.85 123.16" stroke="#ffcd4c"/><path d="M686.08 121A428 428 0 0 1 704.31 129.64" stroke="#ffce4c"/><path d="M699.62 127.32A428 428 0 0 1 717.54 136.58" stroke="#ffd04c"/><path d="M712.93 134.1A428 428 0 0 1 730.51 143.98" stroke="#ffd14d"/><path d="M726 141.34A428 428 0 0 1 743.22 151.83" stroke="#ffd34d"/><path d="M738.81 149.04A428 428 0 0 1 755.65 160.12" stroke="#fcd051"/><path d="M751.33 157.17A428 428 0 0 1 767.78 168.84" stroke="#f9ce55"/><path d="M763.57 165.74A428 428 0 0 1 779.6 177.98" stroke="#f6cb59"/><path d="M775.5 174.73A428 428 0 0 1 791.1 187.52" stroke="#f3c85d"/><path d="M787.11 184.13A428 428 0 0 1 802.25 197.46" stroke="#f0c661"/><path d="M798.39 193.93A428 428 0 0 1 813.05 207.78" stroke="#edc365"/><path d="M809.31 204.12A428 428 0 0 1 823.49 218.47" stroke="#eac069"/><path d="M819.88 214.69A428 428 0 0 1 833.54 229.52" stroke="#e7be6d"/><path d="M830.07 225.61A428 428 0 0 1 843.2 240.91" stroke="#e4bb71"/><path d="M839.87 236.89A428 428 0 0 1 852.46 252.64" stroke="#e1b975"/><path d="M849.27 248.5A428 428 0 0 1 861.31 264.68" stroke="#deb679"/><path d="M858.26 260.43A428 428 0 0 1 869.73 277.02" stroke="#dcb37c"/><path d="M866.83 272.67A428 428 0 0 1 877.71 289.65" stroke="#d9b180"/><path d="M874.96 285.19A428 428 0 0 1 885.25 302.54" stroke="#d6ae84"/><path d="M882.66 298A428 428 0 0 1 892.33 315.7" stroke="#d3ab88"/><path d="M889.9 311.07A428 428 0 0 1 898.95 329.09" stroke="#d0a98c"/><path d="M896.68 324.38A428 428 0 0 1 905.1 342.71" stroke="#cda690"/><path d="M903 337.92A428 428 0 0 1 910.76 356.53" stroke="#caa394"/><path d="M908.83 351.67A428 428 0 0 1 915.95 370.54" stroke="#c7a198"/><path d="M914.19 365.62A428 428 0 0 1 920.64 384.72" stroke="#c49e9c"/><path d="M919.05 379.74A428 428 0 0 1 924.83 399.06" stroke="#c19ba0"/><path d="M923.42 394.03A428 428 0 0 1 928.52 413.54" stroke="#be99a4"/><path d="M927.29 408.46A428 428 0 0 1 931.7 428.14" stroke="#bb96a8"/><path d="M930.65 423.01A428 428 0 0 1 934.37 442.83" stroke="#b894ac"/><path d="M933.5 437.68A428 428 0 0 1 936.53 457.62" stroke="#b591b0"/><path d="M935.83 452.43A428 428 0 0 1 938.17 472.47" stroke="#b28eb4"/><path d="M937.66 467.26A428 428 0 0 1 939.29 487.36" stroke="#af8cb8"/><path d="M938.96 482.14A428 428 0 0 1 939.89 502.29" stroke="#ac89bc"/><path d="M939.74 497.06A428 428 0 0 1 939.97 517.23" stroke="#a986c0"/><path d="M940 512A428 428 0 0 1 939.52 532.16" stroke="#a684c4"/><path d="M939.74 526.94A428 428 0 0 1 938.56 547.07" stroke="#a381c8"/><path d="M938.96 541.86A428 428 0 0 1 937.08 561.94" stroke="#a07ecc"/><path d="M937.66 556.74A428 428 0 0 1 935.08 576.74" stroke="#9d7cd0"/><path d="M935.83 571.57A428 428 0 0 1 932.56 591.47" stroke="#9b79d3"/><path d="M933.5 586.32A428 428 0 0 1 929.53 606.09" stroke="#9876d7"/><path d="M930.65 600.99A428 428 0 0 1 925.99 620.61" stroke="#9574db"/><path d="M927.29 615.54A428 428 0 0 1 921.95 634.99" stroke="#9271df"/><path d="M923.42 629.97A428 428 0 0 1 917.41 649.22" stroke="#8f6fe3"/><path d="M919.05 644.26A428 428 0 0 1 912.37 663.29" stroke="#8c6ce7"/><path d="M914.19 658.38A428 428 0 0 1 906.85 677.17" stroke="#8969eb"/><path d="M908.83 672.33A428 428 0 0 1 900.84 690.85" stroke="#8667ef"/><path d="M903 686.08A428 428 0 0 1 894.36 704.31" stroke="#8364f3"/><path d="M896.68 699.62A428 428 0 0 1 887.42 717.54" stroke="#8061f7"/><path d="M889.9 712.93A428 428 0 0 1 880.02 730.51" stroke="#7d5ffb"/><path d="M882.66 726A428 428 0 0 1 872.17 743.22" stroke="#7a5cff"/><path d="M874.96 738.81A428 428 0 0 1 863.88 755.65" stroke="#7d5bfc"/><path d="M866.83 751.33A428 428 0 0 1 855.16 767.78" stroke="#805bf9"/><path d="M858.26 763.57A428 428 0 0 1 846.02 779.6" stroke="#835af7"/><path d="M849.27 775.5A428 428 0 0 1 836.48 791.1" stroke="#8659f4"/><path d="M839.87 787.11A428 428 0 0 1 826.54 802.25" stroke="#8959f1"/><path d="M830.07 798.39A428 428 0 0 1 816.22 813.05" stroke="#8c58ee"/><path d="M819.88 809.31A428 428 0 0 1 805.53 823.49" stroke="#8f57eb"/><path d="M809.31 819.88A428 428 0 0 1 794.48 833.54" stroke="#9256e9"/><path d="M798.39 830.07A428 428 0 0 1 783.09 843.2" stroke="#9556e6"/><path d="M787.11 839.87A428 428 0 0 1 771.36 852.46" stroke="#9855e3"/><path d="M775.5 849.27A428 428 0 0 1 759.32 861.31" stroke="#9b54e0"/><path d="M763.57 858.26A428 428 0 0 1 746.98 869.73" stroke="#9d54dd"/><path d="M751.33 866.83A428 428 0 0 1 734.35 877.71" stroke="#a053db"/><path d="M738.81 874.96A428 428 0 0 1 721.46 885.25" stroke="#a352d8"/><path d="M726 882.66A428 428 0 0 1 708.3 892.33" stroke="#a652d5"/><path d="M712.93 889.9A428 428 0 0 1 694.91 898.95" stroke="#a951d2"/><path d="M699.62 896.68A428 428 0 0 1 681.29 905.1" stroke="#ac50cf"/><path d="M686.08 903A428 428 0 0 1 667.47 910.76" stroke="#af50cd"/><path d="M672.33 908.83A428 428 0 0 1 653.46 915.95" stroke="#b24fca"/><path d="M658.38 914.19A428 428 0 0 1 639.28 920.64" stroke="#b54ec7"/><path d="M644.26 919.05A428 428 0 0 1 624.94 924.83" stroke="#b84ec4"/><path d="M629.97 923.42A428 428 0 0 1 610.46 928.52" stroke="#bb4dc1"/><path d="M615.54 927.29A428 428 0 0 1 595.86 931.7" stroke="#be4cbf"/><path d="M600.99 930.65A428 428 0 0 1 581.17 934.37" stroke="#c14bbc"/><path d="M586.32 933.5A428 428 0 0 1 566.38 936.53" stroke="#c44bb9"/><path d="M571.57 935.83A428 428 0 0 1 551.53 938.17" stroke="#c74ab6"/><path d="M556.74 937.66A428 428 0 0 1 536.64 939.29" stroke="#ca49b3"/><path d="M541.86 938.96A428 428 0 0 1 521.71 939.89" stroke="#cd49b1"/><path d="M526.94 939.74A428 428 0 0 1 506.77 939.97" stroke="#d048ae"/><path d="M512 940A428 428 0 0 1 491.84 939.52" stroke="#d347ab"/><path d="M497.06 939.74A428 428 0 0 1 476.93 938.56" stroke="#d647a8"/><path d="M482.14 938.96A428 428 0 0 1 462.06 937.08" stroke="#d946a5"/><path d="M467.26 937.66A428 428 0 0 1 447.26 935.08" stroke="#dc45a3"/><path d="M452.43 935.83A428 428 0 0 1 432.53 932.56" stroke="#de45a0"/><path d="M437.68 933.5A428 428 0 0 1 417.91 929.53" stroke="#e1449d"/><path d="M423.01 930.65A428 428 0 0 1 403.39 925.99" stroke="#e4439a"/><path d="M408.46 927.29A428 428 0 0 1 389.01 921.95" stroke="#e74397"/><path d="M394.03 923.42A428 428 0 0 1 374.78 917.41" stroke="#ea4295"/><path d="M379.74 919.05A428 428 0 0 1 360.71 912.37" stroke="#ed4192"/><path d="M365.62 914.19A428 428 0 0 1 346.83 906.85" stroke="#f0408f"/><path d="M351.67 908.83A428 428 0 0 1 333.15 900.84" stroke="#f3408c"/><path d="M337.92 903A428 428 0 0 1 319.69 894.36" stroke="#f63f89"/><path d="M324.38 896.68A428 428 0 0 1 306.46 887.42" stroke="#f93e87"/><path d="M311.07 889.9A428 428 0 0 1 293.49 880.02" stroke="#fc3e84"/></g><path transform="translate(321.65 694.52) scale(0.52)" fill="#151420" d="M360.50-710L360.50-710Q437.50-710 500.50-683.75Q563.50-657.50 608.75-610Q654-562.50 678.50-497Q703-431.50 703-353.50L703-353.50Q703-272 678.75-205Q654.50-138 610-90Q565.50-42 504-15.75Q442.50 10.50 368.50 10.50L368.50 10.50Q291.50 10.50 228.50-15.50Q165.50-41.50 120.50-89.25Q75.50-137 51-203.25Q26.50-269.50 26.50-350.50L26.50-350.50Q26.50-430 51-496Q75.50-562 120.25-609.75Q165-657.50 226.25-683.75Q287.50-710 360.50-710ZM557-266.50L557-266.50Q557-327 546.25-385.25Q535.50-443.50 516-494.25Q496.50-545 469-583.50Q441.50-622 408-643.75Q374.50-665.50 336-665.50L336-665.50Q287.50-665.50 250.50-638.25Q213.50-611 192.75-559.25Q172-507.50 172-435L172-435Q172-374 182.50-315.25Q193-256.50 213-205.75Q233-155 260.25-116.25Q287.50-77.50 321.25-55.75Q355-34 393-34L393-34Q442.50-34 479.50-61Q516.50-88 536.75-140Q557-192 557-266.50Z"/>
  <rect width="1024" height="1024" filter="url(#grain)" clip-path="url(#rond)"/>
</g>
  <path transform="translate(431.22 330.72) scale(0.33)" fill="#151420" d="M360.50-710L360.50-710Q437.50-710 500.50-683.75Q563.50-657.50 608.75-610Q654-562.50 678.50-497Q703-431.50 703-353.50L703-353.50Q703-272 678.75-205Q654.50-138 610-90Q565.50-42 504-15.75Q442.50 10.50 368.50 10.50L368.50 10.50Q291.50 10.50 228.50-15.50Q165.50-41.50 120.50-89.25Q75.50-137 51-203.25Q26.50-269.50 26.50-350.50L26.50-350.50Q26.50-430 51-496Q75.50-562 120.25-609.75Q165-657.50 226.25-683.75Q287.50-710 360.50-710ZM557-266.50L557-266.50Q557-327 546.25-385.25Q535.50-443.50 516-494.25Q496.50-545 469-583.50Q441.50-622 408-643.75Q374.50-665.50 336-665.50L336-665.50Q287.50-665.50 250.50-638.25Q213.50-611 192.75-559.25Q172-507.50 172-435L172-435Q172-374 182.50-315.25Q193-256.50 213-205.75Q233-155 260.25-116.25Q287.50-77.50 321.25-55.75Q355-34 393-34L393-34Q442.50-34 479.50-61Q516.50-88 536.75-140Q557-192 557-266.50ZM1062.50-36.50L1062.50-73L1059.50-76L1059.50-648Q1059.50-658 1056.75-662Q1054-666 1047.50-668L1047.50-668L1021.50-669Q1015-671 1012.25-674.50Q1009.50-678 1009.50-683.50L1009.50-683.50Q1009.50-689.50 1013.25-693.75Q1017-698 1026-701L1026-701L1134-735Q1146-739 1152.25-740.50Q1158.50-742 1164.50-742L1164.50-742Q1172.50-742 1177-736.75Q1181.50-731.50 1181.50-723L1181.50-723L1181.50-64Q1181.50-51 1185-45.25Q1188.50-39.50 1196-37L1196-37L1216.50-32.50Q1222.50-29.50 1225.25-25.50Q1228-21.50 1228-15.50L1228-15.50Q1228-8 1223.50-4Q1219 0 1211 0L1211 0L1098.50 0Q1083 0 1072.75-10Q1062.50-20 1062.50-36.50L1062.50-36.50ZM744-207.50L744-207.50Q744-284 771.50-337.75Q799-391.50 846.25-420.25Q893.50-449 952-449L952-449Q1003-449 1039.25-426.50Q1075.50-404 1098.50-363.50L1098.50-363.50L1077-337.50Q1060-371.50 1034.50-388.75Q1009-406 977-406L977-406Q946.50-406 922-386.25Q897.50-366.50 883.25-325.50Q869-284.50 869-220L869-220Q869-160 882.25-120.50Q895.50-81 918.75-61.75Q942-42.50 972-42.50L972-42.50Q1001.50-42.50 1028-59.50Q1054.50-76.50 1076.50-112L1076.50-112L1090-92.50Q1055-41.50 1014.50-15.75Q974 10 924 10L924 10Q871 10 830.50-16.25Q790-42.50 767-91.50Q744-140.50 744-207.50ZM1475.50-448.50L1475.50-448.50Q1542.50-448.50 1593.25-419.25Q1644-390 1673-338Q1702-286 1702-218L1702-218Q1702-152.50 1672.25-101Q1642.50-49.50 1590.50-20Q1538.50 9.50 1470.50 9.50L1470.50 9.50Q1404 9.50 1353-19.50Q1302-48.50 1273.50-100Q1245-151.50 1245-219L1245-219Q1245-285 1274.25-336.75Q1303.50-388.50 1355.50-418.50Q1407.50-448.50 1475.50-448.50ZM1505-28L1505-28Q1534-32 1552.25-57.50Q1570.50-83 1576.25-127.75Q1582-172.50 1572-234.50L1572-234.50Q1562-298.50 1543-339.25Q1524-380 1498.25-397.75Q1472.50-415.50 1442-411L1442-411Q1412.50-406.50 1394.25-381Q1376-355.50 1371-310.75Q1366-266 1375.50-204.50L1375.50-204.50Q1385.50-141.50 1404.50-100.75Q1423.50-60 1449.50-41.75Q1475.50-23.50 1505-28Z"/>
</svg>
