<svg xmlns="http://www.w3.org/2000/svg" viewBox="0 0 1024 1024" width="1024" height="1024">
  <title>Odo — Groupe de modération</title>
  <defs><linearGradient id="ap" x1="0.25" y1="0.07" x2="0.75" y2="0.93"><stop offset="0" stop-color="#5a4a8a"/><stop offset="1" stop-color="#0e0c1e"/></linearGradient><filter id="ao" x="-30%" y="-30%" width="160%" height="170%" color-interpolation-filters="sRGB"><feDropShadow dx="0" dy="22" stdDeviation="22" flood-color="#000" flood-opacity="0.45"/></filter><filter id="h" x="-40%" y="-40%" width="180%" height="180%" color-interpolation-filters="sRGB"><feGaussianBlur stdDeviation="90"/></filter></defs>
  <rect width="1024" height="1024" fill="#0b0b14"/>
  
  <rect x="172" y="172" width="680" height="680" rx="220" fill="#f2c66b"/>
    <rect x="194" y="194" width="636" height="636" rx="198" fill="#0b0b14"/>
    <g filter="url(#ao)"><rect x="212" y="212" width="600" height="600" rx="180" fill="url(#ap)"/></g>
    <path transform="translate(408.73 606.95) scale(0.28)" fill="#f7f5fb" d="M360.50-710L360.50-710Q437.50-710 500.50-683.75Q563.50-657.50 608.75-610Q654-562.50 678.50-497Q703-431.50 703-353.50L703-353.50Q703-272 678.75-205Q654.50-138 610-90Q565.50-42 504-15.75Q442.50 10.50 368.50 10.50L368.50 10.50Q291.50 10.50 228.50-15.50Q165.50-41.50 120.50-89.25Q75.50-137 51-203.25Q26.50-269.50 26.50-350.50L26.50-350.50Q26.50-430 51-496Q75.50-562 120.25-609.75Q165-657.50 226.25-683.75Q287.50-710 360.50-710ZM557-266.50L557-266.50Q557-327 546.25-385.25Q535.50-443.50 516-494.25Q496.50-545 469-583.50Q441.50-622 408-643.75Q374.50-665.50 336-665.50L336-665.50Q287.50-665.50 250.50-638.25Q213.50-611 192.75-559.25Q172-507.50 172-435L172-435Q172-374 182.50-315.25Q193-256.50 213-205.75Q233-155 260.25-116.25Q287.50-77.50 321.25-55.75Q355-34 393-34L393-34Q442.50-34 479.50-61Q516.50-88 536.75-140Q557-192 557-266.50Z"/>
</svg>
